<svg xmlns="http://www.w3.org/2000/svg" width="132.746" height="54" viewBox="0 0 132.746 54"><defs><style>.a{fill:#d51920;}</style></defs><g transform="translate(-7.99 -131.48)"><g transform="translate(7.99 174.503)"><path d="M13.574,270.623H11.565l-.383-4.306h2.009Zm121.577,0h2.006l.383-4.306h-2.009ZM10,266.316H7.99l.383,4.306h2.009Zm128.347,4.306h2.006l.383-4.306h-2.009ZM23.737,271.67a2.711,2.711,0,0,1-2.728,2.818,2.759,2.759,0,0,1-2.744-2.85v-.032a2.708,2.708,0,0,1,2.715-2.818,2.762,2.762,0,0,1,2.76,2.85v.032m-8.53,0a5.527,5.527,0,0,0,5.766,5.457,5.581,5.581,0,0,0,5.8-5.489v-.032a5.529,5.529,0,0,0-5.766-5.456,5.581,5.581,0,0,0-5.8,5.488v.032m13.414,5.249H31.6v-3.77h5.076v-2.428H31.6v-1.8h5.613v-2.562H28.624Zm10.322,0h2.974v-3.77H47v-2.428H41.921v-1.8h5.613v-2.562H38.947v10.555Zm16.957,0h2.974v-7.99H62.1v-2.562H52.68v2.562H55.9v7.99Zm8.15,0h2.974v-4.013h3.818v4.009H73.82V266.364H70.845v3.949H67.028v-3.949H64.054Zm11.785,0h8.712v-2.489H78.784v-1.674h5.153V270.45H78.784v-1.6h5.69v-2.489H75.839Zm16.884.073h2.591l2.147-6.076,2.163,6.076h2.591l3.588-10.629h-3.083l-1.872,6.105-2.07-6.134H96.214l-2.07,6.134-1.872-6.105H89.129Zm16.561-4.236,1.211-3,1.195,3Zm-4.77,4.163h3.128l.767-1.885h4.14l.783,1.885h3.188l-4.568-10.629h-2.869Zm13.434,0h8.175v-2.562h-5.2v-7.99h-2.974v10.552Zm9.83,0h8.175v-2.562h-5.2v-7.99h-2.974v10.552Z" transform="translate(-7.99 -266.15)"/></g><path class="a" d="M160.618,148.166h-5.77c-.559-1.415-1.185-2.521-4.418-2.521-2.233,0-3.185.92-3.185,1.843,0,1.01.8,1.859,3.259,2.406l5.227,1.393a6.534,6.534,0,0,1,5.08,6.5,7.114,7.114,0,0,1-1.859,5.1c-1.131,1.179-2.843,2.735-8.52,2.735-7.808,0-10.373-4.936-10.373-7.916h6.079c.6,2.179,2.092,3.006,5.054,3.006,2.051,0,3.811-.732,3.811-2.3,0-1.492-1.275-2.054-2.923-2.5l-4.128-1.115a13.645,13.645,0,0,1-4.83-2.086,6.161,6.161,0,0,1,.492-9.76,10.45,10.45,0,0,1,6.763-2.061,11.58,11.58,0,0,1,7.153,2.108c1.412.968,3.089,3.313,3.089,5.172M63.17,131.48c.048.208,12.076,33.857,12.076,33.857h7.178l11.054-28h68.66l.521-5.856H88.2L79.028,154.7l-8.261-23.216h-7.6m59.383,21.749,8.964,12.1h5.607V141.4h-6.472v13.018L122.521,141.4h-6.2v23.938h6.23Zm40.365,10.862a1.271,1.271,0,1,0-1.275,1.275A1.263,1.263,0,0,0,162.918,164.095Zm-.147,0a1.125,1.125,0,1,1-1.121-1.128A1.119,1.119,0,0,1,162.771,164.095Zm-.518-.265c0-.281-.208-.447-.53-.447h-.6v1.355h.3V164.3h.236l.288.435h.348l-.329-.486A.419.419,0,0,0,162.253,163.829Zm-.3.019c0,.115-.08.2-.233.2h-.3v-.4h.291C161.86,163.647,161.95,163.714,161.95,163.849Zm-73.612,1.489h6.885l1.284-3.744h9.114l1.319,3.744h6.779L105.046,141.4H97.752Zm10.1-8.076L101.1,149.3l2.632,7.958Z" transform="translate(-37.552)"/></g></svg>